<svg xmlns="http://www.w3.org/2000/svg" xmlns:xlink="http://www.w3.org/1999/xlink" version="1.1" width="624.1" height="521" viewBox="0 185.5 624.1 521"><defs><marker orient="auto" overflow="visible" markerUnits="userSpaceOnUse"><path stroke="#333333" fill="#333333" d="M 0 0 0 0"/></marker><marker orient="auto" overflow="visible" markerUnits="userSpaceOnUse"><path stroke="#333333" fill="#333333" transform="rotate(180)" d="M 0 0 0 0"/></marker><marker orient="auto" overflow="visible" markerUnits="userSpaceOnUse"><path stroke="#333333" fill="#333333" transform="rotate(180)" d="M 8 -4 0 0 8 4 z"/></marker></defs><g><g data-type="tp.Element" transform="translate(108,233)"><g><g>
<path d="M516,0H0v180h516V0L516,0z" fill="#FFFFFF" stroke="#000000"/>
<rect x="22.6" y="8.2" width="470.9" height="163.6" fill="none"/>
<circle fill="none" cx="258" cy="0" r="0.1"/>
<circle fill="none" cx="385.9" cy="0" r="0.1"/>
<circle fill="none" cx="516" cy="45.4" r="0.1"/>
<circle fill="none" cx="516" cy="90" r="0.1"/>
<circle fill="none" cx="516" cy="134.6" r="0.1"/>
<circle fill="none" cx="385.9" cy="180" r="0.1"/>
<circle fill="none" cx="258" cy="180" r="0.1"/>
<circle fill="none" cx="130.2" cy="180" r="0.1"/>
<circle fill="none" cx="0" cy="134.6" r="0.1"/>
<circle fill="none" cx="0" cy="90" r="0.1"/>
<circle fill="none" cx="0" cy="45.4" r="0.1"/>
<circle fill="none" cx="130.2" cy="0" r="0.1"/>
</g></g><g><rect stroke="none" fill="#ffffff" width="40" height="20" x="68.2" y="-46.1"/><path stroke="#000000" fill="none" d="M109,-0.1 C119.1,-20.6 83.9,-5.6 94 -26.1"/><text font-size="18.7" xml:space="preserve" font-family="OpenSansCondensedLight" fill="black" text-anchor="middle" x="88.2" y="-36.1"><tspan dy="0.3em">102</tspan></text></g><text font-size="18.7" xml:space="preserve" font-family="OpenSansCondensedLight" line-height="21" fill="black" text-anchor="middle" text-vertical-anchor="middle" transform="matrix(1,0,0,1,258,90)" display="none"><tspan dy="0.3em" style="fill-opacity: 0; stroke-opacity: 0;">-</tspan></text></g><g data-type="tp.Element" transform="translate(315,239.5)"><g><g>
<path d="M290,0H0v122h290V0L290,0z" fill="#FFFFFF" stroke="#000000"/>
<rect x="12.7" y="5.6" width="264.7" height="110.9" fill="none"/>
<circle fill="none" cx="145" cy="0" r="0.1"/>
<circle fill="none" cx="216.9" cy="0" r="0.1"/>
<circle fill="none" cx="290" cy="30.8" r="0.1"/>
<circle fill="none" cx="290" cy="61" r="0.1"/>
<circle fill="none" cx="290" cy="91.2" r="0.1"/>
<circle fill="none" cx="216.9" cy="122" r="0.1"/>
<circle fill="none" cx="145" cy="122" r="0.1"/>
<circle fill="none" cx="73.2" cy="122" r="0.1"/>
<circle fill="none" cx="0" cy="91.2" r="0.1"/>
<circle fill="none" cx="0" cy="61" r="0.1"/>
<circle fill="none" cx="0" cy="30.8" r="0.1"/>
<circle fill="none" cx="73.2" cy="0" r="0.1"/>
</g></g><g><rect stroke="none" fill="#ffffff" width="0" height="0"/><path stroke="#000000" fill="none" d=""/><text font-size="18.7" xml:space="preserve" display="none" font-family="OpenSansCondensedLight" fill="black" text-anchor="middle"><tspan dy="0.3em" style="fill-opacity: 0; stroke-opacity: 0;">-</tspan></text></g><text font-size="18.7" xml:space="preserve" font-family="OpenSansCondensedLight" line-height="21" fill="black" text-anchor="middle" text-vertical-anchor="top" transform="matrix(1,0,0,1,145,5.6)"><tspan dy="14.9">STORAGE SUBSYSTEM <tspan text-decoration="underline">114</tspan></tspan></text></g><g data-type="tp.Element" transform="translate(170,266)"><g><g>
<path d="M104.1,0H0v55h104.1V0L104.1,0z" fill="#FFFFFF" stroke="#000000"/>
<rect x="4.6" y="2.5" width="95" height="50" fill="none"/>
<circle fill="none" cx="52" cy="0" r="0.1"/>
<circle fill="none" cx="77.8" cy="0" r="0.1"/>
<circle fill="none" cx="104.1" cy="13.9" r="0.1"/>
<circle fill="none" cx="104.1" cy="27.5" r="0.1"/>
<circle fill="none" cx="104.1" cy="41.2" r="0.1"/>
<circle fill="none" cx="77.8" cy="55" r="0.1"/>
<circle fill="none" cx="52" cy="55" r="0.1"/>
<circle fill="none" cx="26.2" cy="55" r="0.1"/>
<circle fill="none" cx="0" cy="41.2" r="0.1"/>
<circle fill="none" cx="0" cy="27.5" r="0.1"/>
<circle fill="none" cx="0" cy="13.9" r="0.1"/>
<circle fill="none" cx="26.2" cy="0" r="0.1"/>
</g></g><g><rect stroke="none" fill="#ffffff" width="0" height="0"/><path stroke="#000000" fill="none" d=""/><text font-size="18.7" xml:space="preserve" display="none" font-family="OpenSansCondensedLight" fill="black" text-anchor="middle"><tspan dy="0.3em" style="fill-opacity: 0; stroke-opacity: 0;">-</tspan></text></g><text font-size="18.7" xml:space="preserve" font-family="OpenSansCondensedLight" line-height="21" fill="black" text-anchor="middle" text-vertical-anchor="middle" transform="matrix(1,0,0,1,52,27.5)"><tspan dy="-4">PROCESSOR(S)</tspan><tspan dy="21" x="0"><tspan text-decoration="underline">112</tspan></tspan></text></g><g data-type="tp.Element" transform="translate(435,431.3)"><g><g>
<path d="M104,0H0v79h104V0L104,0z" fill="#FFFFFF" stroke="#000000"/>
<rect x="4.5" y="3.6" width="94.9" height="71.8" fill="none"/>
<circle fill="none" cx="52" cy="0" r="0.1"/>
<circle fill="none" cx="77.8" cy="0" r="0.1"/>
<circle fill="none" cx="104" cy="19.9" r="0.1"/>
<circle fill="none" cx="104" cy="39.5" r="0.1"/>
<circle fill="none" cx="104" cy="59.1" r="0.1"/>
<circle fill="none" cx="77.8" cy="79" r="0.1"/>
<circle fill="none" cx="52" cy="79" r="0.1"/>
<circle fill="none" cx="26.2" cy="79" r="0.1"/>
<circle fill="none" cx="0" cy="59.1" r="0.1"/>
<circle fill="none" cx="0" cy="39.5" r="0.1"/>
<circle fill="none" cx="0" cy="19.9" r="0.1"/>
<circle fill="none" cx="26.2" cy="0" r="0.1"/>
</g></g><g><rect stroke="none" fill="#ffffff" width="0" height="0"/><path stroke="#000000" fill="none" d=""/><text font-size="18.7" xml:space="preserve" display="none" font-family="OpenSansCondensedLight" fill="black" text-anchor="middle"><tspan dy="0.3em" style="fill-opacity: 0; stroke-opacity: 0;">-</tspan></text></g><text font-size="18.7" xml:space="preserve" font-family="OpenSansCondensedLight" line-height="21" fill="black" text-anchor="middle" text-vertical-anchor="middle" transform="matrix(1,0,0,1,52,39.5)"><tspan dy="-14.5">OUTPUT</tspan><tspan dy="21" x="0">DEVICE(S)</tspan><tspan dy="21" x="0"><tspan text-decoration="underline">110</tspan></tspan></text></g><g data-type="tp.Element" transform="translate(311,431.3)"><g><g>
<path d="M104,0H0v79h104V0L104,0z" fill="#FFFFFF" stroke="#000000"/>
<rect x="4.5" y="3.6" width="94.9" height="71.8" fill="none"/>
<circle fill="none" cx="52" cy="0" r="0.1"/>
<circle fill="none" cx="77.8" cy="0" r="0.1"/>
<circle fill="none" cx="104" cy="19.9" r="0.1"/>
<circle fill="none" cx="104" cy="39.5" r="0.1"/>
<circle fill="none" cx="104" cy="59.1" r="0.1"/>
<circle fill="none" cx="77.8" cy="79" r="0.1"/>
<circle fill="none" cx="52" cy="79" r="0.1"/>
<circle fill="none" cx="26.2" cy="79" r="0.1"/>
<circle fill="none" cx="0" cy="59.1" r="0.1"/>
<circle fill="none" cx="0" cy="39.5" r="0.1"/>
<circle fill="none" cx="0" cy="19.9" r="0.1"/>
<circle fill="none" cx="26.2" cy="0" r="0.1"/>
</g></g><g><rect stroke="none" fill="#ffffff" width="0" height="0"/><path stroke="#000000" fill="none" d=""/><text font-size="18.7" xml:space="preserve" display="none" font-family="OpenSansCondensedLight" fill="black" text-anchor="middle"><tspan dy="0.3em" style="fill-opacity: 0; stroke-opacity: 0;">-</tspan></text></g><text font-size="18.7" xml:space="preserve" font-family="OpenSansCondensedLight" line-height="21" fill="black" text-anchor="middle" text-vertical-anchor="middle" transform="matrix(1,0,0,1,52,39.5)"><tspan dy="-14.5">INPUT</tspan><tspan dy="21" x="0">DEVICE(S)</tspan><tspan dy="21" x="0"><tspan text-decoration="underline">108</tspan></tspan></text></g><g data-type="tp.Element" transform="translate(328,272)"><g><g>
<path d="M120.7,0H0v79h120.7V0L120.7,0z" fill="#FFFFFF" stroke="#000000"/>
<rect x="5.3" y="3.6" width="110.1" height="71.8" fill="none"/>
<circle fill="none" cx="60.3" cy="0" r="0.1"/>
<circle fill="none" cx="90.2" cy="0" r="0.1"/>
<circle fill="none" cx="120.7" cy="19.9" r="0.1"/>
<circle fill="none" cx="120.7" cy="39.5" r="0.1"/>
<circle fill="none" cx="120.7" cy="59.1" r="0.1"/>
<circle fill="none" cx="90.2" cy="79" r="0.1"/>
<circle fill="none" cx="60.3" cy="79" r="0.1"/>
<circle fill="none" cx="30.4" cy="79" r="0.1"/>
<circle fill="none" cx="0" cy="59.1" r="0.1"/>
<circle fill="none" cx="0" cy="39.5" r="0.1"/>
<circle fill="none" cx="0" cy="19.9" r="0.1"/>
<circle fill="none" cx="30.4" cy="0" r="0.1"/>
</g></g><g><rect stroke="none" fill="#ffffff" width="0" height="0"/><path stroke="#000000" fill="none" d=""/><text font-size="18.7" xml:space="preserve" display="none" font-family="OpenSansCondensedLight" fill="black" text-anchor="middle"><tspan dy="0.3em" style="fill-opacity: 0; stroke-opacity: 0;">-</tspan></text></g><text font-size="18.7" xml:space="preserve" font-family="OpenSansCondensedLight" line-height="21" fill="black" text-anchor="middle" text-vertical-anchor="top" transform="matrix(1,0,0,1,60.3,3.6)"><tspan dy="14.9">VOLATILE</tspan><tspan dy="21" x="0">MEMORY</tspan><tspan dy="21" x="0"><tspan text-decoration="underline">118</tspan></tspan></text></g><g data-type="tp.Element" transform="translate(190,431.3)"><g><g>
<path d="M104,0H0v79h104V0L104,0z" fill="#FFFFFF" stroke="#000000"/>
<rect x="4.5" y="3.6" width="94.9" height="71.8" fill="none"/>
<circle fill="none" cx="52" cy="0" r="0.1"/>
<circle fill="none" cx="77.8" cy="0" r="0.1"/>
<circle fill="none" cx="104" cy="19.9" r="0.1"/>
<circle fill="none" cx="104" cy="39.5" r="0.1"/>
<circle fill="none" cx="104" cy="59.1" r="0.1"/>
<circle fill="none" cx="77.8" cy="79" r="0.1"/>
<circle fill="none" cx="52" cy="79" r="0.1"/>
<circle fill="none" cx="26.2" cy="79" r="0.1"/>
<circle fill="none" cx="0" cy="59.1" r="0.1"/>
<circle fill="none" cx="0" cy="39.5" r="0.1"/>
<circle fill="none" cx="0" cy="19.9" r="0.1"/>
<circle fill="none" cx="26.2" cy="0" r="0.1"/>
</g></g><g><rect stroke="none" fill="#ffffff" width="0" height="0"/><path stroke="#000000" fill="none" d=""/><text font-size="18.7" xml:space="preserve" display="none" font-family="OpenSansCondensedLight" fill="black" text-anchor="middle"><tspan dy="0.3em" style="fill-opacity: 0; stroke-opacity: 0;">-</tspan></text></g><text font-size="18.7" xml:space="preserve" font-family="OpenSansCondensedLight" line-height="21" fill="black" text-anchor="middle" text-vertical-anchor="middle" transform="matrix(1,0,0,1,52,39.5)"><tspan dy="-14.5">COMM</tspan><tspan dy="21" x="0">INTERFACE</tspan><tspan dy="21" x="0"><tspan text-decoration="underline">106</tspan></tspan></text></g><g data-type="tp.Element" transform="translate(473,272)"><g><g>
<path d="M121,0H0v79h121V0L121,0z" fill="#FFFFFF" stroke="#000000"/>
<rect x="5.3" y="3.6" width="110.4" height="71.8" fill="none"/>
<circle fill="none" cx="60.5" cy="0" r="0.1"/>
<circle fill="none" cx="90.5" cy="0" r="0.1"/>
<circle fill="none" cx="121" cy="19.9" r="0.1"/>
<circle fill="none" cx="121" cy="39.5" r="0.1"/>
<circle fill="none" cx="121" cy="59.1" r="0.1"/>
<circle fill="none" cx="90.5" cy="79" r="0.1"/>
<circle fill="none" cx="60.5" cy="79" r="0.1"/>
<circle fill="none" cx="30.5" cy="79" r="0.1"/>
<circle fill="none" cx="0" cy="59.1" r="0.1"/>
<circle fill="none" cx="0" cy="39.5" r="0.1"/>
<circle fill="none" cx="0" cy="19.9" r="0.1"/>
<circle fill="none" cx="30.5" cy="0" r="0.1"/>
</g></g><g><rect stroke="none" fill="#ffffff" width="0" height="0"/><path stroke="#000000" fill="none" d=""/><text font-size="18.7" xml:space="preserve" display="none" font-family="OpenSansCondensedLight" fill="black" text-anchor="middle"><tspan dy="0.3em" style="fill-opacity: 0; stroke-opacity: 0;">-</tspan></text></g><text font-size="18.7" xml:space="preserve" font-family="OpenSansCondensedLight" line-height="21" fill="black" text-anchor="middle" text-vertical-anchor="top" transform="matrix(1,0,0,1,60.5,3.6)"><tspan dy="14.9">NON-</tspan><tspan dy="21" x="0">VOLATILE</tspan><tspan dy="21" x="0">MEMORY</tspan><tspan dy="21" x="0"><tspan text-decoration="underline">120</tspan></tspan></text></g><g data-type="tp.Element" transform="translate(155,364)"><g><g>
<g fill="#FFFFFF">
    <rect width="1" height="7"/>
</g>
<g>
    <line fill="none" stroke-linejoin="round" x1="0" y1="0" x2="0" y2="7"/>
</g>
<rect fill="none" width="1" height="7"/>
<circle fill="none" cx="0" cy="0.8" r="0.1"/>
<circle fill="none" cx="0" cy="2" r="0.1"/>
<circle fill="none" cx="0" cy="3.2" r="0.1"/>
<circle fill="none" cx="0" cy="4.4" r="0.1"/>
<circle fill="none" cx="0" cy="5.6" r="0.1"/>
<circle fill="none" cx="0" cy="6.7" r="0.1"/>
<circle fill="none" cx="0" cy="6.2" r="0.1"/>
<circle fill="none" cx="0" cy="5" r="0.1"/>
<circle fill="none" cx="0" cy="3.8" r="0.1"/>
<circle fill="none" cx="0" cy="2.6" r="0.1"/>
<circle fill="none" cx="0" cy="1.4" r="0.1"/>
<circle fill="none" cx="0" cy="0.3" r="0.1"/>
</g></g><g><rect stroke="none" fill="#ffffff" width="0" height="0"/><path stroke="#000000" fill="none" d=""/><text font-size="18.7" xml:space="preserve" display="none" font-family="OpenSansCondensedLight" fill="black" text-anchor="middle"><tspan dy="0.3em" style="fill-opacity: 0; stroke-opacity: 0;">-</tspan></text></g><text font-size="18.7" xml:space="preserve" font-family="OpenSansCondensedLight" line-height="21" fill="black" text-anchor="middle" text-vertical-anchor="middle" transform="matrix(1,0,0,1,0.5,3.5)" display="none"><tspan dy="0.3em" style="fill-opacity: 0; stroke-opacity: 0;">-</tspan></text></g><g data-type="tp.Element" transform="translate(606,364)"><g transform="rotate(180,0.5,3.5)"><g>
<g fill="#FFFFFF">
    <rect width="1" height="7"/>
</g>
<g>
    <line fill="none" stroke-linejoin="round" x1="0" y1="0" x2="0" y2="7"/>
</g>
<rect fill="none" width="1" height="7"/>
<circle fill="none" cx="0" cy="0.8" r="0.1"/>
<circle fill="none" cx="0" cy="2" r="0.1"/>
<circle fill="none" cx="0" cy="3.2" r="0.1"/>
<circle fill="none" cx="0" cy="4.4" r="0.1"/>
<circle fill="none" cx="0" cy="5.6" r="0.1"/>
<circle fill="none" cx="0" cy="6.7" r="0.1"/>
<circle fill="none" cx="0" cy="6.2" r="0.1"/>
<circle fill="none" cx="0" cy="5" r="0.1"/>
<circle fill="none" cx="0" cy="3.8" r="0.1"/>
<circle fill="none" cx="0" cy="2.6" r="0.1"/>
<circle fill="none" cx="0" cy="1.4" r="0.1"/>
<circle fill="none" cx="0" cy="0.3" r="0.1"/>
</g></g><g><rect stroke="none" fill="#ffffff" width="0" height="0"/><path stroke="#000000" fill="none" d=""/><text font-size="18.7" xml:space="preserve" display="none" font-family="OpenSansCondensedLight" fill="black" text-anchor="middle"><tspan dy="0.3em" style="fill-opacity: 0; stroke-opacity: 0;">-</tspan></text></g><text font-size="18.7" xml:space="preserve" font-family="OpenSansCondensedLight" line-height="21" fill="black" text-anchor="middle" text-vertical-anchor="middle" transform="matrix(1,0,0,1,0.5,3.5)" display="none"><tspan dy="0.3em" style="fill-opacity: 0; stroke-opacity: 0;">-</tspan></text></g><g data-type="tp.Element" transform="translate(31,369)"><g><g>
<g fill="#FFFFFF" stroke="#000000">
    <path d="M15.7,18H20.9L10.4,0L0,18h5.2v108H0L10.4,144L20.9,126h-5.2V18z"/>
</g>
<rect x="2.2" y="5.1" fill="none" width="16.5" height="133.8"/>
<circle fill="none" cx="10.5" cy="0.1" r="0.1"/>
<circle fill="none" cx="20.9" cy="17.8" r="0.1"/>
<circle fill="none" cx="15.7" cy="34.1" r="0.1"/>
<circle fill="none" cx="15.7" cy="69.2" r="0.1"/>
<circle fill="none" cx="15.7" cy="103.2" r="0.1"/>
<circle fill="none" cx="21" cy="126.2" r="0.1"/>
<circle fill="none" cx="10.3" cy="143.6" r="0.1"/>
<circle fill="none" cx="0" cy="125.9" r="0.1"/>
<circle fill="none" cx="5.2" cy="103.6" r="0.1"/>
<circle fill="none" cx="5.2" cy="70.7" r="0.1"/>
<circle fill="none" cx="5.2" cy="36" r="0.1"/>
<circle fill="none" cx="0" cy="17.6" r="0.1"/>
</g></g><g><rect stroke="none" fill="#ffffff" width="40" height="20" x="51.2" y="132"/><path stroke="#000000" fill="none" d="M15.7,110 C22.4,135.8 47.2,106.2 53.8 132"/><text font-size="18.7" xml:space="preserve" font-family="OpenSansCondensedLight" fill="black" text-anchor="middle" x="71.2" y="142"><tspan dy="0.3em">104</tspan></text></g><text font-size="18.7" xml:space="preserve" font-family="OpenSansCondensedLight" line-height="21" fill="black" text-anchor="middle" text-vertical-anchor="bottom" transform="matrix(1,0,0,1,10.5,-10)"><tspan dy="-1.4em">COMM</tspan><tspan dy="21" x="0">NETWORK</tspan></text></g><g data-type="tp.Link"><path fill="none" pointer-events="none" joint-selector="line" stroke-width="1" stroke="#333333" stroke-linejoin="round" marker-start="url(#v-22000855011)" marker-end="url(#v-21454029882)" d="M 189.9 470 L 51 469.8"/><g><g label-idx="0" cursor="default" transform="translate(120.5, 469.9)"><rect joint-selector="rect" fill="#ffffff" rx="3" ry="3" width="8" height="0" transform="matrix(1,0,0,1,-4,0)"/><text joint-selector="text" font-size="18.7" xml:space="preserve" display="none" y="0.8em" fill="#000000" text-anchor="middle" pointer-events="none" font-family="OpenSansCondensedLight"><tspan dy="0" style="fill-opacity: 0; stroke-opacity: 0;">-</tspan></text></g></g></g><g data-type="tp.Element" transform="translate(370.8,319.5)"><g><g>
<path d="M35,0H0v28h35V0L35,0z" fill="#FFFFFF" stroke="#000000"/>
<rect x="1.5" y="1.3" width="31.9" height="25.4" fill="none"/>
<circle fill="none" cx="17.5" cy="0" r="0.1"/>
<circle fill="none" cx="26.2" cy="0" r="0.1"/>
<circle fill="none" cx="35" cy="7.1" r="0.1"/>
<circle fill="none" cx="35" cy="14" r="0.1"/>
<circle fill="none" cx="35" cy="20.9" r="0.1"/>
<circle fill="none" cx="26.2" cy="28" r="0.1"/>
<circle fill="none" cx="17.5" cy="28" r="0.1"/>
<circle fill="none" cx="8.8" cy="28" r="0.1"/>
<circle fill="none" cx="0" cy="20.9" r="0.1"/>
<circle fill="none" cx="0" cy="14" r="0.1"/>
<circle fill="none" cx="0" cy="7.1" r="0.1"/>
<circle fill="none" cx="8.8" cy="0" r="0.1"/>
</g></g><g><rect stroke="none" fill="#ffffff" width="0" height="0"/><path stroke="#000000" fill="none" d=""/><text font-size="18.7" xml:space="preserve" display="none" font-family="OpenSansCondensedLight" fill="black" text-anchor="middle"><tspan dy="0.3em" style="fill-opacity: 0; stroke-opacity: 0;">-</tspan></text></g><text font-size="18.7" xml:space="preserve" font-family="OpenSansCondensedLight" line-height="21" fill="black" text-anchor="middle" text-vertical-anchor="middle" transform="matrix(1,0,0,1,17.5,14)"><tspan dy="6.5"><tspan text-decoration="underline">122</tspan></tspan></text></g><g data-type="tp.Element" transform="translate(156,383)"><g><g>
<g fill="#FFFFFF" stroke="#000000">
    <path d="M362.3,16.4V21.9L414,10.9L362.3,0v5.5H51.8V0L0,10.9L51.8,21.9v-5.5H362.3z"/>
</g>
<rect x="14.6" y="2.3" fill="none" width="384.7" height="17.2"/>
<circle fill="none" cx="210.8" cy="5.4" r="0.1"/>
<circle fill="none" cx="310.5" cy="5.4" r="0.1"/>
<circle fill="none" cx="363.5" cy="0" r="0.1"/>
<circle fill="none" cx="413.7" cy="11" r="0.1"/>
<circle fill="none" cx="362.8" cy="21.9" r="0.1"/>
<circle fill="none" cx="316.1" cy="16.4" r="0.1"/>
<circle fill="none" cx="215" cy="16.4" r="0.1"/>
<circle fill="none" cx="117.4" cy="16.4" r="0.1"/>
<circle fill="none" cx="51.2" cy="22" r="0.1"/>
<circle fill="none" cx="1" cy="10.8" r="0.1"/>
<circle fill="none" cx="51.9" cy="0" r="0.1"/>
<circle fill="none" cx="116" cy="5.4" r="0.1"/>
</g></g><g><rect stroke="none" fill="#ffffff" width="40" height="20" x="-40.6" y="-31.6"/><path stroke="#000000" fill="none" d="M26.2,5.4 C23.2,-18.3 -0.2,12.1 -3.2 -11.6"/><text font-size="18.7" xml:space="preserve" font-family="OpenSansCondensedLight" fill="black" text-anchor="middle" x="-20.6" y="-21.6"><tspan dy="0.3em">116</tspan></text></g><text font-size="18.7" xml:space="preserve" font-family="OpenSansCondensedLight" line-height="21" fill="black" text-anchor="middle" text-vertical-anchor="middle" transform="matrix(1,0,0,1,207,10.9)" display="none"><tspan dy="0.3em" style="fill-opacity: 0; stroke-opacity: 0;">-</tspan></text></g><g data-type="tp.Element" transform="translate(516,319.5)"><g><g>
<path d="M35,0H0v28h35V0L35,0z" fill="#FFFFFF" stroke="#000000"/>
<rect x="1.5" y="1.3" width="31.9" height="25.4" fill="none"/>
<circle fill="none" cx="17.5" cy="0" r="0.1"/>
<circle fill="none" cx="26.2" cy="0" r="0.1"/>
<circle fill="none" cx="35" cy="7.1" r="0.1"/>
<circle fill="none" cx="35" cy="14" r="0.1"/>
<circle fill="none" cx="35" cy="20.9" r="0.1"/>
<circle fill="none" cx="26.2" cy="28" r="0.1"/>
<circle fill="none" cx="17.5" cy="28" r="0.1"/>
<circle fill="none" cx="8.8" cy="28" r="0.1"/>
<circle fill="none" cx="0" cy="20.9" r="0.1"/>
<circle fill="none" cx="0" cy="14" r="0.1"/>
<circle fill="none" cx="0" cy="7.1" r="0.1"/>
<circle fill="none" cx="8.8" cy="0" r="0.1"/>
</g></g><g><rect stroke="none" fill="#ffffff" width="0" height="0"/><path stroke="#000000" fill="none" d=""/><text font-size="18.7" xml:space="preserve" display="none" font-family="OpenSansCondensedLight" fill="black" text-anchor="middle"><tspan dy="0.3em" style="fill-opacity: 0; stroke-opacity: 0;">-</tspan></text></g><text font-size="18.7" xml:space="preserve" font-family="OpenSansCondensedLight" line-height="21" fill="black" text-anchor="middle" text-vertical-anchor="middle" transform="matrix(1,0,0,1,17.5,14)"><tspan dy="6.5"><tspan text-decoration="underline">122</tspan></tspan></text></g><g data-type="tp.Link"><path fill="none" pointer-events="none" joint-selector="line" stroke-width="1" stroke="#333333" stroke-linejoin="round" marker-start="url(#v-22000855011)" marker-end="url(#v-21588573873)" d="M 222.2 388.5 L 222.1 321"/><g><g label-idx="0" cursor="default" transform="translate(222.2, 354.8)"><rect joint-selector="rect" fill="#ffffff" rx="3" ry="3" width="8" height="0" transform="matrix(1,0,0,1,-4,0)"/><text joint-selector="text" font-size="18.7" xml:space="preserve" display="none" y="0.8em" fill="#000000" text-anchor="middle" pointer-events="none" font-family="OpenSansCondensedLight"><tspan dy="0" style="fill-opacity: 0; stroke-opacity: 0;">-</tspan></text></g></g></g><g data-type="tp.Link"><path fill="none" pointer-events="none" joint-selector="line" stroke-width="1" stroke="#333333" stroke-linejoin="round" marker-start="url(#v-22000855011)" marker-end="url(#v-21588573873)" d="M 454.1 388.5 L 454.2 361.6"/><g><g label-idx="0" cursor="default" transform="translate(454.1, 375)"><rect joint-selector="rect" fill="#ffffff" rx="3" ry="3" width="8" height="0" transform="matrix(1,0,0,1,-4,0)"/><text joint-selector="text" font-size="18.7" xml:space="preserve" display="none" y="0.8em" fill="#000000" text-anchor="middle" pointer-events="none" font-family="OpenSansCondensedLight"><tspan dy="0" style="fill-opacity: 0; stroke-opacity: 0;">-</tspan></text></g></g></g><g data-type="tp.Link"><path fill="none" pointer-events="none" joint-selector="line" stroke-width="1" stroke="#333333" stroke-linejoin="round" marker-start="url(#v-22000855011)" marker-end="url(#v-21588573873)" d="M 363 399.4 L 363 431.3"/><g><g label-idx="0" cursor="default" transform="translate(363, 415.3)"><rect joint-selector="rect" fill="#ffffff" rx="3" ry="3" width="8" height="0" transform="matrix(1,0,0,1,-4,0)"/><text joint-selector="text" font-size="18.7" xml:space="preserve" display="none" y="0.8em" fill="#000000" text-anchor="middle" pointer-events="none" font-family="OpenSansCondensedLight"><tspan dy="0" style="fill-opacity: 0; stroke-opacity: 0;">-</tspan></text></g></g></g><g data-type="tp.Link"><path fill="none" pointer-events="none" joint-selector="line" stroke-width="1" stroke="#333333" stroke-linejoin="round" marker-start="url(#v-22000855011)" marker-end="url(#v-21588573873)" d="M 487.2 399.4 L 487.1 431.3"/><g><g label-idx="0" cursor="default" transform="translate(487.2, 415.3)"><rect joint-selector="rect" fill="#ffffff" rx="3" ry="3" width="8" height="0" transform="matrix(1,0,0,1,-4,0)"/><text joint-selector="text" font-size="18.7" xml:space="preserve" display="none" y="0.8em" fill="#000000" text-anchor="middle" pointer-events="none" font-family="OpenSansCondensedLight"><tspan dy="0" style="fill-opacity: 0; stroke-opacity: 0;">-</tspan></text></g></g></g><g data-type="tp.Link"><path fill="none" pointer-events="none" joint-selector="line" stroke-width="1" stroke="#333333" stroke-linejoin="round" marker-start="url(#v-22000855011)" marker-end="url(#v-21588573873)" d="M 242.9 399.4 L 242.5 431.3"/><g><g label-idx="0" cursor="default" transform="translate(242.7, 415.3)"><rect joint-selector="rect" fill="#ffffff" rx="3" ry="3" width="8" height="0" transform="matrix(1,0,0,1,-4,0)"/><text joint-selector="text" font-size="18.7" xml:space="preserve" display="none" y="0.8em" fill="#000000" text-anchor="middle" pointer-events="none" font-family="OpenSansCondensedLight"><tspan dy="0" style="fill-opacity: 0; stroke-opacity: 0;">-</tspan></text></g></g></g></g></svg>